<?xml version="1.0" standalone="no"?>
<!DOCTYPE svg PUBLIC "-//W3C//DTD SVG 20010904//EN"
 "http://www.w3.org/TR/2001/REC-SVG-20010904/DTD/svg10.dtd">
<svg version="1.0" xmlns="http://www.w3.org/2000/svg"
 width="260.000000pt" height="260.000000pt" viewBox="0 0 260.000000 260.000000"
 preserveAspectRatio="xMidYMid meet">
<metadata>
Created by potrace 1.11, written by Peter Selinger 2001-2013
</metadata>
<g transform="translate(0.000000,260.000000) scale(0.100000,-0.100000)"
fill="#000000" stroke="none">
<path d="M711 1848 c-90 -371 -186 -768 -282 -1163 -33 -137 -62 -258 -65
-267 -5 -17 42 -18 880 -18 487 0 886 1 886 3 1 1 25 99 54 217 l53 215 -539
3 c-296 1 -538 5 -538 8 0 4 21 91 46 193 25 102 61 251 80 331 20 80 56 228
80 330 87 357 114 471 114 480 0 6 -128 10 -343 10 l-343 0 -83 -342z"/>
</g>
</svg>
